<svg width="525" height="775" viewBox="0 0 525 775" fill="none" xmlns="http://www.w3.org/2000/svg">
<path id="mask" fill-rule="evenodd" clip-rule="evenodd" d="M170.339 1.84273C212.425 -11.0912 249.57 51.8613 292.99 63.8344C339.704 76.7159 390.805 47.8851 433.783 74.4879C476.568 100.97 520.906 151.006 524.392 207.068C528.375 271.125 478.833 317.938 452.278 371.928C436.614 403.776 410.647 426.725 399.356 461.284C388.362 494.935 403.906 538.249 387.975 568.747C372.019 599.295 333.997 601.511 312.782 627.023C276.295 670.901 270.444 791.604 218.791 772.203C158.93 749.72 197.282 616.418 150.093 565.918C118.522 532.133 57.7642 602.912 27.4897 567.483C-0.742496 534.445 41.1899 478.335 36.194 432.631C32.1173 395.336 -4.89757 363.821 1.26753 327.592C7.54651 290.694 52.8816 283.523 67.2036 250.405C83.3672 213.028 72.453 164.511 88.0998 126.802C108.084 78.6403 126.202 15.4072 170.339 1.84273Z" fill="#FFFEFA"/>
</svg>
