<?xml version="1.0" standalone="no"?>
<!DOCTYPE svg PUBLIC "-//W3C//DTD SVG 20010904//EN"
 "http://www.w3.org/TR/2001/REC-SVG-20010904/DTD/svg10.dtd">
<svg version="1.0" xmlns="http://www.w3.org/2000/svg"
 width="848.000000pt" height="848.000000pt" viewBox="0 0 848.000000 848.000000"
 preserveAspectRatio="xMidYMid meet">
<metadata>
Created by potrace 1.14, written by Peter Selinger 2001-2017
</metadata>
<g transform="translate(0.000000,848.000000) scale(0.100000,-0.100000)"
fill="#000000" stroke="none">
<path d="M3230 7991 c-101 -32 -181 -82 -271 -171 -157 -155 -261 -345 -459
-840 -116 -291 -154 -404 -165 -501 -3 -24 -7 -55 -10 -69 -4 -25 -9 -77 -20
-255 -14 -214 -22 -305 -30 -357 -3 -16 -7 -43 -10 -60 -23 -141 -82 -279
-156 -368 -53 -64 -118 -120 -264 -230 -226 -168 -313 -304 -313 -487 0 -135
28 -216 164 -480 162 -315 197 -421 193 -586 -2 -119 -18 -197 -94 -482 -35
-132 -67 -255 -70 -274 -3 -19 -8 -38 -11 -43 -11 -17 -13 -225 -3 -268 15
-68 53 -143 95 -189 95 -106 212 -123 420 -61 38 12 78 25 89 30 11 5 74 30
139 55 164 63 288 94 355 89 78 -6 81 -7 133 -33 128 -62 252 -288 304 -555
19 -99 28 -160 39 -261 3 -27 8 -68 10 -90 2 -22 7 -71 10 -110 3 -38 7 -88
10 -110 2 -22 6 -71 10 -110 3 -38 8 -86 10 -105 3 -19 7 -57 11 -85 33 -283
105 -482 215 -595 110 -113 252 -150 364 -96 55 27 138 109 166 164 8 15 16
29 19 32 27 27 128 274 210 515 69 202 124 353 152 415 11 25 21 50 22 55 3
18 88 169 125 220 61 85 160 170 271 232 19 11 80 44 135 73 288 153 395 277
439 505 11 61 15 149 14 370 -1 160 2 319 5 354 16 162 97 350 241 561 209
305 278 413 341 535 37 72 75 141 85 155 9 14 20 32 23 40 7 15 48 79 177 280
36 55 72 111 80 124 23 37 155 267 174 306 31 61 77 173 101 245 49 148 60
221 60 395 0 148 -3 176 -29 275 -47 186 -122 347 -239 518 -57 83 -183 235
-237 285 -14 13 -50 47 -80 76 -59 56 -195 162 -274 213 -114 75 -235 120
-371 138 -55 8 -228 8 -295 1 -30 -3 -82 -9 -115 -12 -33 -3 -76 -7 -95 -9
-341 -36 -540 -16 -711 70 -44 23 -147 86 -174 107 -5 4 -77 60 -160 125 -82
65 -155 122 -162 128 -7 5 -18 15 -25 21 -36 29 -169 115 -213 137 -128 63
-253 80 -355 48z"/>
</g>
</svg>
