<svg width="50" height="50" viewBox="0 0 50 50" fill="none" xmlns="http://www.w3.org/2000/svg">
<path fill-rule="evenodd" clip-rule="evenodd" d="M24.477 1.84121C24.477 3.62256 24.979 8.44696 25.053 8.44696C25.1269 8.44696 25.6289 3.62256 25.6289 1.84121C25.6289 0.0598656 25.1269 0 25.053 0C24.979 0 24.477 0.0598656 24.477 1.84121ZM26.3066 20.605C26.3066 16.3481 25.2165 8.44697 25.0559 8.44697C24.8952 8.44697 23.8051 16.3481 23.8051 20.605C23.8051 20.6766 23.8054 20.7471 23.806 20.8164C23.6261 20.6215 23.4286 20.416 23.2121 20.1995C20.209 17.1964 13.8659 12.3914 13.7526 12.5047C13.6393 12.6181 18.4442 18.9611 21.4474 21.9642C22 22.5168 22.4803 22.9451 22.8971 23.2755C22.3108 23.1882 21.5618 23.1332 20.605 23.1332C16.3481 23.1332 8.44697 24.2233 8.44697 24.3839C8.44697 24.5445 16.3481 25.6346 20.605 25.6346C21.189 25.6346 21.6955 25.6141 22.1349 25.5783C21.9192 25.7754 21.6903 25.9943 21.4474 26.2372C18.4442 29.2403 13.6393 35.5834 13.7526 35.6967C13.8659 35.81 20.209 31.005 23.2121 28.0019C23.4485 27.7655 23.6621 27.5423 23.8551 27.3317C23.8232 27.7521 23.8051 28.2324 23.8051 28.781C23.8051 33.0379 24.8952 40.939 25.0559 40.939C25.2165 40.939 26.3066 33.0379 26.3066 28.781C26.3066 28.2275 26.2882 27.7436 26.2558 27.3205C26.4514 27.5344 26.6685 27.7613 26.9091 28.002C29.9122 31.0051 36.2553 35.81 36.3686 35.6967C36.4819 35.5834 31.6769 29.2404 28.6738 26.2372C28.4308 25.9943 28.2018 25.7753 27.986 25.5782C28.4081 25.6105 28.8907 25.6288 29.4427 25.6288C33.6897 25.6288 41.5725 24.5413 41.5725 24.381C41.5725 24.2207 33.6897 23.1331 29.4427 23.1331C28.5331 23.1331 27.8117 23.183 27.2397 23.263C27.6528 22.9344 28.1281 22.5099 28.6738 21.9642C31.6769 18.9611 36.4819 12.618 36.3686 12.5047C36.2553 12.3914 29.9122 17.1963 26.9091 20.1995C26.6887 20.4198 26.4881 20.6287 26.3056 20.8267C26.3063 20.7541 26.3066 20.6802 26.3066 20.605ZM24.477 47.5447C24.477 45.7634 24.979 40.939 25.053 40.939C25.1269 40.939 25.6289 45.7634 25.6289 47.5447C25.6289 49.3261 25.1269 49.3859 25.053 49.3859C24.979 49.3859 24.477 49.3261 24.477 47.5447ZM8.44696 24.3868C8.44696 24.4608 3.62256 24.9627 1.84121 24.9627C0.0598656 24.9627 0 24.4608 0 24.3868C0 24.3128 0.0598656 23.8109 1.84121 23.8109C3.62256 23.8109 8.44696 24.3128 8.44696 24.3868ZM48.163 24.9585C46.3858 24.9585 41.5726 24.4577 41.5726 24.3839C41.5726 24.3101 46.3858 23.8093 48.163 23.8093C49.9403 23.8093 50 24.3101 50 24.3839C50 24.4577 49.9403 24.9585 48.163 24.9585ZM36.3665 35.6987C36.3143 35.7509 39.3637 39.5085 40.6203 40.7652C41.877 42.0219 42.2734 41.71 42.3256 41.6578C42.3778 41.6057 42.6896 41.2093 41.433 39.9526C40.1763 38.6959 36.4187 35.6466 36.3665 35.6987ZM9.50076 40.7652C10.7575 39.5085 13.8068 35.7509 13.7546 35.6987C13.7024 35.6465 9.94485 38.6959 8.68816 39.9526C7.43147 41.2093 7.74336 41.6056 7.79554 41.6578C7.84772 41.71 8.24407 42.0219 9.50076 40.7652ZM13.7546 12.5027C13.8068 12.4505 10.7575 8.69293 9.50076 7.43624C8.24407 6.17955 7.84772 6.49144 7.79554 6.54362C7.74336 6.5958 7.43147 6.99215 8.68816 8.24884C9.94485 9.50553 13.7024 12.5549 13.7546 12.5027ZM40.6203 7.43621C39.3637 8.6929 36.3143 12.4505 36.3665 12.5027C36.4187 12.5549 40.1763 9.5055 41.433 8.24881C42.6896 6.99212 42.3778 6.59577 42.3256 6.54359C42.2734 6.49141 41.877 6.17952 40.6203 7.43621Z" fill="#C02400"/>
</svg>
